<?xml version="1.0" encoding="utf-8"?>
<!-- Generator: Adobe Illustrator 19.2.1, SVG Export Plug-In . SVG Version: 6.00 Build 0)  -->
<svg version="1.1" id="layer" xmlns="http://www.w3.org/2000/svg" xmlns:xlink="http://www.w3.org/1999/xlink" x="0px" y="0px"
	 viewBox="0 0 652 652" style="enable-background:new 0 0 652 652;" xml:space="preserve">
<style type="text/css">
	.st0{clip-path:url(#SVGID_2_);fill:url(#SVGID_3_);}
	.st1{clip-path:url(#SVGID_5_);fill:url(#SVGID_6_);}
	.st2{clip-path:url(#SVGID_8_);fill:url(#SVGID_9_);}
	.st3{clip-path:url(#SVGID_11_);fill:url(#SVGID_12_);}
</style>
<g>
	<path d="M621.9,387l-5.7,8.8l-5.7-8.8h-5l8.7,12.1v6.7h4v-6.7l8.7-12.1H621.9z M581.9,396.4c0,5.4,2.8,9.9,9.7,9.9
		c1.9,0,4.3-0.1,6.4-0.9v-3.5c-2,0.6-3.9,0.9-6.4,0.9c-4.2,0-5.5-3.2-5.5-6.3c0-3.1,1.3-6.3,5.5-6.3c2.5,0,4.4,0.3,6.4,0.9v-3.5
		c-2.1-0.8-4.5-0.9-6.4-0.9C584.7,386.5,581.9,391,581.9,396.4 M572.6,405.8V387h-4l0,11.9L558,387h-2.8v18.8h4l0-11.9l10.6,11.9
		H572.6z M544.5,394.4h-9.9v-3.9h11.3V387h-15.3v18.8h15.3v-3.5h-11.3V398h9.9V394.4z M513.1,402.7c-4.2,0-5.5-3.2-5.5-6.3
		c0-3.1,1.3-6.3,5.5-6.3c3,0,5.6,0.5,7.2,1.1v-3.5c-1.5-0.8-4.9-1.2-7.2-1.2c-6.9,0-9.6,4.5-9.6,9.9c0,5.4,2.7,9.9,9.6,9.9
		c2.5,0,5.5-0.3,7.5-1.4v-9.5h-8.1v3.5h4.1v3.5C515.6,402.7,514.4,402.7,513.1,402.7 M487,392.2l2.5,6.2h-5.1L487,392.2z M497,405.8
		l-8.6-19.3h-2.8l-8.6,19.3h4.4l1.7-4.2h7.7l1.7,4.2H497z M446.3,392.5c0-1.6,1.2-2.4,4.5-2.4c2.6,0,4.8,0.3,6.8,0.9v-3.5
		c-2.1-0.8-4.8-1-6.8-1c-6.2,0-8.5,2.6-8.5,6.1c0,3.4,2,4.7,8,5.2c3.2,0.3,4.2,0.8,4.2,2.3c0,1.7-1.3,2.6-4.9,2.6
		c-2.6,0-5.6-0.5-7-0.9v3.5c1.2,0.5,4.9,1,6.9,1c6.7,0,8.9-2.9,8.9-6.2c0-3.6-2-5.1-7.9-5.6C447.5,394.2,446.3,393.8,446.3,392.5
		 M423.3,387h-4v18.8h15.3v-3.5h-11.3V387z M401.2,392.2l2.5,6.2h-5.1L401.2,392.2z M411.2,405.8l-8.6-19.3h-2.8l-8.6,19.3h4.4
		l1.7-4.2h7.8l1.7,4.2H411.2z M367.7,396.4c0,5.4,2.8,9.9,9.7,9.9c1.9,0,4.3-0.1,6.4-0.9v-3.5c-2,0.6-3.9,0.9-6.4,0.9
		c-4.2,0-5.5-3.2-5.5-6.3c0-3.1,1.3-6.3,5.5-6.3c2.5,0,4.4,0.3,6.4,0.9v-3.5c-2.1-0.8-4.5-0.9-6.4-0.9
		C370.5,386.5,367.7,391,367.7,396.4 M357.5,387h-4v18.8h4V387z M333.7,403.6l5.1-9.7l-0.1,11.9h3.9V387h-4.4l-6.1,11.7L326,387
		h-4.4v18.8h3.9l-0.1-11.9l5.2,9.7H333.7z M310.9,394.4H301v-3.9h11.3V387H297v18.8h15.3v-3.5H301V398h9.9V394.4z M287,405.8V387h-4
		v7.4h-9.3V387h-4v18.8h4V398h9.3v7.9H287z M244.3,396.4c0,5.4,2.8,9.9,9.7,9.9c1.9,0,4.3-0.1,6.4-0.9v-3.5c-2,0.6-3.9,0.9-6.4,0.9
		c-4.2,0-5.5-3.2-5.5-6.3c0-3.1,1.3-6.3,5.5-6.3c2.5,0,4.4,0.3,6.4,0.9v-3.5c-2.1-0.8-4.5-0.9-6.4-0.9
		C247.1,386.5,244.3,391,244.3,396.4 M223.8,405.8V387h-4l0,11.9L209.3,387h-2.8v18.8h4l0-11.9l10.6,11.9H223.8z M188.4,392.2
		l2.5,6.2h-5.1L188.4,392.2z M198.3,405.8l-8.6-19.3h-2.8l-8.6,19.3h4.4l1.7-4.2h7.7l1.7,4.2H198.3z M169.5,394.4h-9.9v-3.9h11.3
		V387h-15.3v18.8h15.3v-3.5h-11.3V398h9.9V394.4z M143,393.3c0,1.4-0.5,2.8-2.9,2.8h-4.3v-5.6h4.3C142.6,390.6,143,392,143,393.3
		 M140.2,399.7c5.2,0,7.1-3,7.1-6.4c0-3.4-1.8-6.3-7.1-6.3h-8.4v18.8h4v-6.2H140.2z M118.4,396.4c0,3.6-1,6.3-5.4,6.3
		c-4.5,0-5.4-2.7-5.4-6.3c0-3.6,0.9-6.3,5.4-6.3C117.4,390.1,118.4,392.9,118.4,396.4 M122.5,396.4c0-5.8-2.4-9.9-9.5-9.9
		c-7,0-9.5,4.1-9.5,9.9c0,5.8,2.4,9.9,9.5,9.9C120.1,406.3,122.5,402.2,122.5,396.4 M90.4,393c0,1.4-0.4,2.4-2.9,2.4h-4.7v-4.9h4.7
		C89.9,390.6,90.4,391.6,90.4,393 M91.2,405.8h4.9l-4.7-7.5c2.2-1,3.2-3,3.2-5.3c0-3.4-1.7-5.9-7-5.9h-8.8v18.8h4v-6.9h4.5
		L91.2,405.8z M60.2,406.3c6.2,0,8.9-2.6,8.9-6.7V387h-4.2v12.6c0,2.3-1.9,3.2-4.7,3.2c-2.8,0-4.7-0.9-4.7-3.2V387h-4.2v12.6
		C51.3,403.7,54,406.3,60.2,406.3 M40.8,394.4h-9.9v-3.9h11.3V387H26.9v18.8h15.3v-3.5H30.9V398h9.9V394.4z"/>
	<path d="M162.9,360.4h85.7v-19.7h-63.2v-24.1h55.7v-19.7h-55.7v-21.6h63.2v-19.7h-85.7V360.4z M327.4,363.1c10.7,0,23.9-0.4,35.7-5
		v-19.7c-11.1,3.4-21.8,4.8-35.9,4.8c-23.4,0-30.7-17.8-30.7-35.2c0-17.4,7.3-35.2,30.7-35.2c14.1,0,24.8,1.5,35.9,4.8V258
		c-11.8-4.6-25-5-35.7-5c-38.6,0-54.1,24.9-54.1,55.1C273.3,338.2,288.8,363.1,327.4,363.1 M469.6,360.4h22.5V255.7h-22.5v41.3
		h-52.3v-41.3h-22.5v104.7h22.5v-43.8h52.3V360.4z M585,319.1h-28.4l14.3-34.6L585,319.1z M626.9,360.4L578.9,253H563l-47.9,107.4
		h24.5l9.5-23.5h43.4l9.8,23.5H626.9z"/>
</g>
<g>
	<defs>
		<path id="SVGID_1_" d="M131.5,255.7c-0.9,1.6-22.8,38-28.9,39.9c-6.2,1.9-46.9-15.5-46.9-15.5c8.5-11.6,20.5-20,33.9-24.4H26.9
			v104.7h28.3c-16.7-23.1-17.6-55.1-0.2-79.4c0,0,29.3,33.1,29.1,39.6c-0.1,6.5-28.9,39.8-28.9,39.8h2.2
			c7.9-3.3,39.6-16.1,44.9-14.4c2.4,0.8,7.2,7,12.3,14.4h17L131.5,255.7L131.5,255.7z"/>
	</defs>
	<clipPath id="SVGID_2_">
		<use xlink:href="#SVGID_1_"  style="overflow:visible;"/>
	</clipPath>
	
		<radialGradient id="SVGID_3_" cx="27.4933" cy="719.8701" r="4.2592" gradientTransform="matrix(12.2876 0 0 -12.2876 -258.6371 9153.5254)" gradientUnits="userSpaceOnUse">
		<stop  offset="0" style="stop-color:#FFCB05"/>
		<stop  offset="0.4655" style="stop-color:#FFC906"/>
		<stop  offset="0.6983" style="stop-color:#FEC10B"/>
		<stop  offset="0.879" style="stop-color:#FCB412"/>
		<stop  offset="1" style="stop-color:#FAA61A"/>
	</radialGradient>
	<rect x="26.9" y="255.7" class="st0" width="104.7" height="104.7"/>
</g>
<g>
	<defs>
		<path id="SVGID_4_" d="M89.5,255.7c-13.4,4.4-25.3,12.8-33.8,24.4c0,0,40.7,17.3,46.9,15.5c6.1-1.8,27.8-38,28.9-39.9H89.5z"/>
	</defs>
	<clipPath id="SVGID_5_">
		<use xlink:href="#SVGID_4_"  style="overflow:visible;"/>
	</clipPath>
	
		<linearGradient id="SVGID_6_" gradientUnits="userSpaceOnUse" x1="33.0545" y1="727.3171" x2="37.3138" y2="727.3171" gradientTransform="matrix(14.417 4.6705 4.6705 -14.417 -3813.1013 10597.123)">
		<stop  offset="0" style="stop-color:#0060AF"/>
		<stop  offset="0.1781" style="stop-color:#00549D"/>
		<stop  offset="0.7301" style="stop-color:#003168"/>
		<stop  offset="1" style="stop-color:#002454"/>
	</linearGradient>
	<polygon class="st1" points="62.9,233.5 143.7,259.7 124.3,319.6 43.5,293.4 	"/>
</g>
<g>
	<defs>
		<path id="SVGID_7_" d="M57.4,360.4h57.1c-5.1-7.3-9.9-13.6-12.3-14.4c-0.3-0.1-0.8-0.2-1.3-0.2C93.1,345.8,64.8,357.3,57.4,360.4"
			/>
	</defs>
	<clipPath id="SVGID_8_">
		<use xlink:href="#SVGID_7_"  style="overflow:visible;"/>
	</clipPath>
	
		<linearGradient id="SVGID_9_" gradientUnits="userSpaceOnUse" x1="33.3241" y1="728.0904" x2="37.5834" y2="728.0904" gradientTransform="matrix(17.7054 5.7357 5.7358 -17.7054 -4705.3242 13044.9248)">
		<stop  offset="0" style="stop-color:#0060AF"/>
		<stop  offset="0.1781" style="stop-color:#00549D"/>
		<stop  offset="0.7301" style="stop-color:#003168"/>
		<stop  offset="1" style="stop-color:#002454"/>
	</linearGradient>
	<polygon class="st2" points="62.9,329.1 118.8,347.2 109.1,377.1 53.2,359 	"/>
</g>
<g>
	<defs>
		<path id="SVGID_10_" d="M55.2,360.4c0,0,28.8-33.4,28.9-39.8c0.1-6.5-29.1-39.6-29.1-39.6C37.6,305.3,38.5,337.3,55.2,360.4"/>
	</defs>
	<clipPath id="SVGID_11_">
		<use xlink:href="#SVGID_10_"  style="overflow:visible;"/>
	</clipPath>
	
		<linearGradient id="SVGID_12_" gradientUnits="userSpaceOnUse" x1="31.9846" y1="725.3165" x2="36.2439" y2="725.3165" gradientTransform="matrix(14.7278 4.7854 4.7854 -14.7278 -3916.9346 10838.25)">
		<stop  offset="0" style="stop-color:#0060AF"/>
		<stop  offset="0.1781" style="stop-color:#00549D"/>
		<stop  offset="0.7301" style="stop-color:#003168"/>
		<stop  offset="1" style="stop-color:#002454"/>
	</linearGradient>
	<polygon class="st3" points="42,267.2 107.6,288.5 79.8,374.1 14.2,352.8 	"/>
</g>
</svg>
