<?xml version="1.0" encoding="UTF-8"?>
<svg width="190px" height="95px" viewBox="0 0 190 95" version="1.1" xmlns="http://www.w3.org/2000/svg" xmlns:xlink="http://www.w3.org/1999/xlink">
    <title>logo</title>
    <g id="Page-1-Copy-3" stroke="none" stroke-width="1" fill="none" fill-rule="evenodd">
        <g id="logo" fill="#005798" fill-rule="nonzero">
            <g id="Group" transform="translate(79.188111, 26.633715)">
                <polygon id="Path" points="0 30.7887135 4.27751648 30.7887135 4.27751648 4.98156736 0 4.98156736 0 0 15.2033428 0 15.2033428 4.98156736 10.8753839 4.98156736 10.8753839 30.7887135 15.2033428 30.7887135 15.2033428 35.7197579 0 35.7197579"></polygon>
                <path d="M24.9034185,23.9933706 L24.9034185,26.5700434 C24.9034185,28.8082121 27.7281935,30.1218099 30.9918175,30.1218099 C34.4975651,30.1218099 36.9793318,28.6111724 36.9793318,25.8374599 C36.9793318,22.3362163 33.0347352,21.2146058 29.0396962,19.6584976 C24.4141271,17.9053496 19.8843985,15.8136976 19.8843985,9.63473525 C19.8843985,2.67771876 25.5339486,0 31.4760647,0 C36.9288893,0 42.4321564,2.09165202 42.4321564,6.08296866 L42.4321564,10.6098291 L36.6363234,10.6098291 L36.6363234,8.27566667 C36.6363234,6.52251873 34.0536719,5.59794791 31.4760647,5.59794791 C28.6512896,5.59794791 26.315806,6.7650291 26.315806,9.39222487 C26.315806,12.5549644 29.5289876,13.6765749 33.13562,15.0356435 C38.2958787,16.8847851 43.4611816,18.9259141 43.4611816,25.3979099 C43.4611816,32.4559723 37.5190656,35.7147056 30.9918175,35.7147056 C25.2464269,35.7147056 19.1075854,33.1380328 19.1075854,27.9291119 L19.1075854,23.9883183 L24.9034185,23.9883183 L24.9034185,23.9933706 Z" id="Path"></path>
                <path d="M63.2951377,0.00505229955 C67.4818579,0.00505229955 76.7834385,1.46516687 76.7834385,6.91659809 L76.7834385,11.5899752 L70.9876055,11.5899752 L70.9876055,8.91225641 C70.9876055,6.33558364 66.4074345,5.45648352 63.5877037,5.45648352 C56.9141727,5.45648352 52.04648,10.1298606 52.04648,17.4253812 C52.04648,25.2109748 57.1108981,30.2733789 63.9307121,30.2733789 C66.0240722,30.2733789 71.4314987,29.5913185 71.4314987,26.868129 L71.4314987,24.1904103 L77.2273318,24.1904103 L77.2273318,28.9092581 C77.2273318,34.0676559 68.3141577,35.7197579 63.5423056,35.7197579 C53.070461,35.7197579 45.4738338,27.7876476 45.4738338,17.7133622 C45.4738338,7.49761254 53.2671864,0.00505229955 63.2951377,0.00505229955 Z" id="Path"></path>
                <path d="M96.7636777,0.00505229955 C100.950398,0.00505229955 110.251978,1.46516687 110.251978,6.91659809 L110.251978,11.5899752 L104.456145,11.5899752 L104.456145,8.91225641 C104.456145,6.33558364 99.8759744,5.45648352 97.0562437,5.45648352 C90.3827126,5.45648352 85.5150199,10.1298606 85.5150199,17.4253812 C85.5150199,25.2109748 90.579438,30.2733789 97.399252,30.2733789 C99.4926121,30.2733789 104.900039,29.5913185 104.900039,26.868129 L104.900039,24.1904103 L110.695872,24.1904103 L110.695872,28.9092581 C110.695872,34.0676559 101.782698,35.7197579 97.0108455,35.7197579 C86.5390009,35.7197579 78.9423713,27.7876476 78.9423713,17.7133622 C78.9373295,7.49761254 86.7306821,0.00505229955 96.7636777,0.00505229955 Z" id="Path"></path>
            </g>
            <g id="Group" transform="translate(65.513173, 86.766185)">
                <path d="M1.40229904,3.83469536 L1.40229904,3.81448616 C1.40229904,3.81448616 0.332919915,3.4254591 0.332919915,2.08659972 C0.332919915,0.68206044 1.51327234,0 2.92565986,0 C3.45026094,0 3.97486201,0.136412088 3.97486201,0.136412088 L3.6419421,1.27317949 C3.6419421,1.27317949 3.36450884,1.20749959 3.10725254,1.20749959 C2.37079333,1.20749959 1.78061712,1.58642206 1.78061712,2.2533256 C1.78061712,2.75350326 2.03787342,3.3547269 2.99627923,3.3547269 L4.47928613,3.3547269 L4.47928613,2.2836394 L5.88158516,2.2836394 L5.88158516,3.3547269 L6.90556611,3.3547269 L6.90556611,4.5167558 L5.88158516,4.5167558 L5.88158516,5.49690192 C5.88158516,7.11363777 4.76680787,8.18472528 2.94079258,8.18472528 C1.16017546,8.18472528 0,7.14900387 0,5.82024909 C0,4.93609666 0.53468956,4.12267644 1.40229904,3.83469536 Z M2.95088106,6.90144119 C3.87397719,6.90144119 4.47424189,6.41136813 4.47424189,5.41606512 L4.47424189,4.5117035 L2.90548289,4.5117035 C2.02778494,4.5117035 1.45778569,4.92599207 1.45778569,5.6939416 C1.45778569,6.40126354 2.03787342,6.90144119 2.95088106,6.90144119 Z" id="Shape"></path>
                <path d="M14.4769721,0 C15.4353779,0 17.5590034,0.333451771 17.5590034,1.58136976 L17.5590034,2.65245727 L16.232368,2.65245727 L16.232368,2.04112902 C16.232368,1.45000997 15.1831658,1.24791799 14.5425472,1.24791799 C13.0191864,1.24791799 11.9044091,2.3190055 11.9044091,3.99131665 C11.9044091,5.77477839 13.0645845,6.93680729 14.623255,6.93680729 C15.102458,6.93680729 16.338297,6.780186 16.338297,6.15875316 L16.338297,5.54742491 L17.6649324,5.54742491 L17.6649324,6.62861702 C17.6649324,7.81085511 15.627059,8.18977758 14.5375029,8.18977758 C12.1414884,8.18977758 10.4062588,6.37094974 10.4062588,4.06204884 C10.4012252,1.71778185 12.1818423,0 14.4769721,0 Z" id="Path"></path>
                <path d="M21.7205023,4.536965 L22.0786434,4.536965 L22.0786434,4.34497762 C22.0786434,3.62249878 21.6246617,3.3648315 21.0344855,3.3648315 C20.187053,3.3648315 19.4304168,3.91047986 19.4304168,3.91047986 L18.9058158,2.93033374 C18.9058158,2.93033374 19.7835137,2.2280641 21.1555473,2.2280641 C22.6789081,2.2280641 23.4960752,3.02127513 23.4960752,4.47128511 L23.4960752,6.74481991 C23.4960752,6.91154579 23.5868715,6.99238258 23.743243,6.99238258 L24.2577556,6.99238258 L24.2577556,8.05336549 L22.9210317,8.05336549 C22.3964306,8.05336549 22.1997052,7.77548901 22.1997052,7.45214184 L22.1997052,7.38646195 C22.1997052,7.20963146 22.2350149,7.09848087 22.2350149,7.09848087 L22.214838,7.09848087 C22.214838,7.09848087 21.735635,8.18977758 20.4241324,8.18977758 C19.4556381,8.18977758 18.5426304,7.61886773 18.5426304,6.46189113 C18.5274977,4.71379548 20.8074947,4.536965 21.7205023,4.536965 Z M20.7772292,7.12374237 C21.5439539,7.12374237 22.0887319,6.30021754 22.0887319,5.58279101 L22.0887319,5.39080362 L21.8566968,5.39080362 C21.3018303,5.39080362 19.9550179,5.48174502 19.9550179,6.34063594 C19.9550179,6.7650291 20.2526282,7.12374237 20.7772292,7.12374237 Z" id="Shape"></path>
                <path d="M25.019436,6.99238258 L25.8416473,6.99238258 L25.8416473,3.66796948 C25.8416473,3.51134819 25.750851,3.4204068 25.5995238,3.4204068 L24.9639494,3.4204068 L24.9639494,2.35942389 L26.4469563,2.35942389 C26.9463361,2.35942389 27.2035924,2.57162047 27.2035924,3.05158893 L27.2035924,3.3850407 C27.2035924,3.59723728 27.1834155,3.74375397 27.1834155,3.74375397 L27.2035924,3.74375397 C27.4608487,2.93033374 28.136777,2.2836394 29.0094308,2.2836394 C29.140581,2.2836394 29.2666871,2.3038486 29.2666871,2.3038486 L29.2666871,3.69828327 C29.2666871,3.69828327 29.1204041,3.67807408 28.9236787,3.67807408 C27.7786359,3.67807408 27.2641233,4.68348169 27.2641233,5.75456919 L27.2641233,6.99238258 L28.0762461,6.99238258 L28.0762461,8.05336549 L25.0244803,8.05336549 L25.0244803,6.99238258 L25.019436,6.99238258 Z" id="Path"></path>
                <path d="M30.3411104,1.19234269 L29.4735009,1.19234269 L29.4735009,0.131359788 L31.7534979,0.131359788 L31.7534979,2.59688197 C31.7534979,2.87475845 31.733321,3.07685043 31.733321,3.07685043 L31.7534979,3.07685043 C31.7534979,3.07685043 32.2680105,2.2280641 33.4584514,2.2280641 C34.996945,2.2280641 35.9856162,3.4456683 35.9856162,5.20386854 C35.9856162,7.01259178 34.870839,8.17967298 33.3676551,8.17967298 C32.131816,8.17967298 31.6727901,7.27531136 31.6727901,7.27531136 L31.6526131,7.27531136 C31.6526131,7.27531136 31.6727901,7.47740334 31.6727901,7.69970452 L31.6727901,8.04326089 L30.3360662,8.04326089 L30.3360662,1.19234269 L30.3411104,1.19234269 Z M33.1255315,6.99238258 C33.9023447,6.99238258 34.5631402,6.35579284 34.5631402,5.22913004 C34.5631402,4.14793793 33.9830525,3.4456683 33.1507527,3.4456683 C32.4142935,3.4456683 31.7232325,3.98121205 31.7232325,5.23923464 C31.7232325,6.11833476 32.1772142,6.99238258 33.1255315,6.99238258 Z" id="Shape"></path>
                <path d="M39.8797704,2.2280641 C41.6149894,2.2280641 43.0071999,3.46587749 43.0071999,5.20386854 C43.0071999,6.95701649 41.6149894,8.17967298 39.8898589,8.17967298 C38.1546399,8.17967298 36.7624294,6.95196419 36.7624294,5.20386854 C36.7624294,3.46587749 38.1546399,2.2280641 39.8797704,2.2280641 Z M39.8949031,6.97722569 C40.8079108,6.97722569 41.5746354,6.26485145 41.5746354,5.20386854 C41.5746354,4.15299023 40.8079108,3.4305114 39.8949031,3.4305114 C38.971807,3.4305114 38.2050576,4.15299023 38.2050576,5.20386854 C38.2000381,6.26485145 38.9667628,6.97722569 39.8949031,6.97722569 Z" id="Shape"></path>
                <path d="M43.9000306,6.99238258 L44.7222419,6.99238258 L44.7222419,3.66796948 C44.7222419,3.51134819 44.6314456,3.4204068 44.4750741,3.4204068 L43.8394997,3.4204068 L43.8394997,2.35942389 L45.3325951,2.35942389 C45.8319749,2.35942389 46.0690543,2.59182967 46.0690543,2.99601364 L46.0690543,3.25368091 C46.0690543,3.3749361 46.0488773,3.50124359 46.0488773,3.50124359 L46.0690543,3.50124359 C46.1346294,3.32441311 46.7348941,2.2280641 48.1624143,2.2280641 C49.3780765,2.2280641 50.0640933,2.88486305 50.0640933,4.39044831 L50.0640933,6.98733028 L50.8863046,6.98733028 L50.8863046,8.04831319 L48.6617942,8.04831319 L48.6617942,4.67842939 C48.6617942,3.98626435 48.4701131,3.51640049 47.7588751,3.51640049 C46.7348941,3.51640049 46.1346294,4.4965466 46.1346294,5.49184962 L46.1346294,6.98733028 L46.9467522,6.98733028 L46.9467522,8.04831319 L43.8949863,8.04831319 L43.8949863,6.99238258 L43.9000306,6.99238258 Z" id="Path"></path>
                <path d="M58.4879759,0 C59.4463818,0 61.5700073,0.333451771 61.5700073,1.58136976 L61.5700073,2.65245727 L60.2433719,2.65245727 L60.2433719,2.04112902 C60.2433719,1.45000997 59.1941697,1.24791799 58.5535511,1.24791799 C57.0301903,1.24791799 55.915413,2.3190055 55.915413,3.99131665 C55.915413,5.77477839 57.0755884,6.93680729 58.6342589,6.93680729 C59.1134618,6.93680729 60.3493009,6.780186 60.3493009,6.15875316 L60.3493009,5.54742491 L61.6759363,5.54742491 L61.6759363,6.62861702 C61.6759363,7.81085511 59.6380629,8.18977758 58.5485068,8.18977758 C56.1524923,8.18977758 54.4172627,6.37094974 54.4172627,4.06204884 C54.4122291,1.71778185 56.1928462,0 58.4879759,0 Z" id="Path"></path>
                <path d="M65.4994711,2.2280641 C67.1338052,2.2280641 68.0266359,3.4204068 68.0266359,4.92599207 C68.0266359,5.09271795 67.9913262,5.40596052 67.9913262,5.40596052 L64.0618624,5.40596052 C64.1526587,6.45178653 64.9092949,6.98733028 65.7668159,6.98733028 C66.689912,6.98733028 67.4162828,6.38610664 67.4162828,6.38610664 L67.9610608,7.39151425 C67.9610608,7.39151425 67.0934513,8.18472528 65.6659311,8.18472528 C63.7844291,8.18472528 62.6141652,6.8256567 62.6141652,5.20892084 C62.6192094,3.4557729 63.7945176,2.2280641 65.4994711,2.2280641 Z M66.5688502,4.5723311 C66.5486733,3.78922467 66.0694704,3.32441311 65.4692057,3.32441311 C64.7478792,3.32441311 64.2333666,3.82459076 64.0971721,4.5723311 L66.5688502,4.5723311 Z" id="Shape"></path>
                <path d="M68.9497321,6.99238258 L69.7719434,6.99238258 L69.7719434,3.66796948 C69.7719434,3.51134819 69.681147,3.4204068 69.5298198,3.4204068 L68.8942454,3.4204068 L68.8942454,2.35942389 L70.3772523,2.35942389 C70.8766322,2.35942389 71.1338885,2.57162047 71.1338885,3.05158893 L71.1338885,3.3850407 C71.1338885,3.59723728 71.1137115,3.74375397 71.1137115,3.74375397 L71.1338885,3.74375397 C71.3911448,2.93033374 72.0670731,2.2836394 72.9397268,2.2836394 C73.0708771,2.2836394 73.1969831,2.3038486 73.1969831,2.3038486 L73.1969831,3.69828327 C73.1969831,3.69828327 73.0507001,3.67807408 72.8539747,3.67807408 C71.708932,3.67807408 71.1944194,4.68348169 71.1944194,5.75456919 L71.1944194,6.99238258 L72.0065422,6.99238258 L72.0065422,8.05336549 L68.9547763,8.05336549 L68.9547763,6.99238258 L68.9497321,6.99238258 Z" id="Path"></path>
                <path d="M74.4832646,3.4204068 L73.6156551,3.4204068 L73.6156551,2.35942389 L74.5286627,2.35942389 L74.5286627,0.808367929 L75.8956521,0.808367929 L75.8956521,2.35942389 L77.1869778,2.35942389 L77.1869778,3.4204068 L75.8956521,3.4204068 L75.8956521,5.81519679 C75.8956521,6.7852383 76.6321113,6.91659809 77.0306064,6.91659809 C77.1869778,6.91659809 77.2878626,6.90649349 77.2878626,6.90649349 L77.2878626,8.06347009 C77.2878626,8.06347009 77.1113142,8.09883619 76.8540579,8.09883619 C76.0520236,8.09883619 74.4832646,7.86643041 74.4832646,5.95666117 L74.4832646,3.4204068 L74.4832646,3.4204068 Z" id="Path"></path>
                <path d="M78.1504279,6.99238258 L78.9726392,6.99238258 L78.9726392,3.4254591 L78.0949412,3.4254591 L78.0949412,2.36447619 L80.3900709,2.36447619 L80.3900709,6.99238258 L81.2021938,6.99238258 L81.2021938,8.05336549 L78.1504279,8.05336549 L78.1504279,6.99238258 Z M78.9625507,0.131359788 L80.3900709,0.131359788 L80.3900709,1.38938238 L78.9625507,1.38938238 L78.9625507,0.131359788 Z" id="Shape"></path>
                <path d="M82.044582,6.99238258 L82.8667933,6.99238258 L82.8667933,3.4254591 L81.9890954,3.4254591 L81.9890954,2.36447619 L82.8667933,2.36447619 L82.8667933,2.10680891 C82.8667933,0.267771876 84.3346675,0.0303137973 85.0913037,0.0303137973 C85.4242236,0.0303137973 85.6713914,0.0757844933 85.6713914,0.0757844933 L85.6713914,1.21255189 C85.6713914,1.21255189 85.5251084,1.1771858 85.2375867,1.1771858 C84.9147552,1.1771858 84.2791809,1.24286569 84.2791809,2.07144282 L84.2791809,2.35942389 L88.2641314,2.35942389 L88.2641314,6.98733028 L89.0863427,6.98733028 L89.0863427,8.04831319 L86.0345768,8.04831319 L86.0345768,6.98733028 L86.8567881,6.98733028 L86.8567881,3.4204068 L84.2741366,3.4204068 L84.2741366,6.98733028 L85.2325424,6.98733028 L85.2325424,8.04831319 L82.0395378,8.04831319 L82.0395378,6.99238258 L82.044582,6.99238258 Z M86.8567881,0.131359788 L88.2843083,0.131359788 L88.2843083,1.38938238 L86.8567881,1.38938238 L86.8567881,0.131359788 Z" id="Shape"></path>
                <path d="M92.8443023,2.2280641 C93.7926196,2.2280641 95.1696975,2.58677737 95.1696975,3.58713268 L95.1696975,4.37023911 L93.9439469,4.37023911 L93.9439469,3.99131665 C93.9439469,3.61239418 93.3638591,3.4355637 92.8846562,3.4355637 C91.8505868,3.4355637 91.2150124,4.14793793 91.2150124,5.18871164 C91.2150124,6.36084514 92.0271352,6.99743488 92.9956295,6.99743488 C93.7976639,6.99743488 94.4534152,6.55283252 94.7661582,6.30526984 L95.265538,7.31067746 C94.8771315,7.67949532 93.9943893,8.18977758 92.9149217,8.18977758 C91.2553663,8.18977758 89.7874922,7.06311478 89.7874922,5.22407774 C89.7925364,3.52145279 91.0939506,2.2280641 92.8443023,2.2280641 Z" id="Path"></path>
                <path d="M99.134471,4.536965 L99.4926121,4.536965 L99.4926121,4.34497762 C99.4926121,3.62249878 99.0386304,3.3648315 98.4484542,3.3648315 C97.6010217,3.3648315 96.8443855,3.91047986 96.8443855,3.91047986 L96.3197844,2.93033374 C96.3197844,2.93033374 97.1974824,2.2280641 98.569516,2.2280641 C100.092877,2.2280641 100.910044,3.02127513 100.910044,4.47128511 L100.910044,6.74481991 C100.910044,6.91154579 101.00084,6.99238258 101.157212,6.99238258 L101.671724,6.99238258 L101.671724,8.05336549 L100.335,8.05336549 C99.8103993,8.05336549 99.6136739,7.77548901 99.6136739,7.45214184 L99.6136739,7.38646195 C99.6136739,7.20963146 99.6489836,7.09848087 99.6489836,7.09848087 L99.6288066,7.09848087 C99.6288066,7.09848087 99.1496037,8.18977758 97.838101,8.18977758 C96.8696067,8.18977758 95.9565991,7.61886773 95.9565991,6.46189113 C95.9414664,4.71379548 98.2214634,4.536965 99.134471,4.536965 Z M98.1861537,7.12374237 C98.9528783,7.12374237 99.4976564,6.30021754 99.4976564,5.58279101 L99.4976564,5.39080362 L99.2656213,5.39080362 C98.7107547,5.39080362 97.3639424,5.48174502 97.3639424,6.34063594 C97.3639424,6.7650291 97.6665968,7.12374237 98.1861537,7.12374237 Z" id="Shape"></path>
                <path d="M102.932785,3.4204068 L102.065175,3.4204068 L102.065175,2.35942389 L102.978183,2.35942389 L102.978183,0.808367929 L104.345172,0.808367929 L104.345172,2.35942389 L105.636498,2.35942389 L105.636498,3.4204068 L104.345172,3.4204068 L104.345172,5.81519679 C104.345172,6.7852383 105.081631,6.91659809 105.480126,6.91659809 C105.636498,6.91659809 105.737383,6.90649349 105.737383,6.90649349 L105.737383,8.06347009 C105.737383,8.06347009 105.560834,8.09883619 105.303578,8.09883619 C104.501544,8.09883619 102.932785,7.86643041 102.932785,5.95666117 L102.932785,3.4204068 L102.932785,3.4204068 Z" id="Path"></path>
                <path d="M106.594904,6.99238258 L107.417115,6.99238258 L107.417115,3.4254591 L106.539417,3.4254591 L106.539417,2.36447619 L108.834547,2.36447619 L108.834547,6.99238258 L109.64667,6.99238258 L109.64667,8.05336549 L106.594904,8.05336549 L106.594904,6.99238258 Z M107.407026,0.131359788 L108.834547,0.131359788 L108.834547,1.38938238 L107.407026,1.38938238 L107.407026,0.131359788 Z" id="Shape"></path>
                <path d="M113.475249,2.2280641 C115.210467,2.2280641 116.602678,3.46587749 116.602678,5.20386854 C116.602678,6.95701649 115.210467,8.17967298 113.485337,8.17967298 C111.750118,8.17967298 110.357908,6.95196419 110.357908,5.20386854 C110.357908,3.46587749 111.750118,2.2280641 113.475249,2.2280641 Z M113.485337,6.97722569 C114.398345,6.97722569 115.165069,6.26485145 115.165069,5.20386854 C115.165069,4.15299023 114.398345,3.4305114 113.485337,3.4305114 C112.562241,3.4305114 111.790472,4.15299023 111.790472,5.20386854 C111.795516,6.26485145 112.562241,6.97722569 113.485337,6.97722569 Z" id="Shape"></path>
                <path d="M117.495509,6.99238258 L118.31772,6.99238258 L118.31772,3.66796948 C118.31772,3.51134819 118.226924,3.4204068 118.075596,3.4204068 L117.440022,3.4204068 L117.440022,2.35942389 L118.933117,2.35942389 C119.432497,2.35942389 119.669577,2.59182967 119.669577,2.99601364 L119.669577,3.25368091 C119.669577,3.3749361 119.6494,3.50124359 119.6494,3.50124359 L119.669577,3.50124359 C119.735152,3.32441311 120.335416,2.2280641 121.762937,2.2280641 C122.978599,2.2280641 123.664616,2.88486305 123.664616,4.39044831 L123.664616,6.98733028 L124.486827,6.98733028 L124.486827,8.04831319 L122.262317,8.04831319 L122.262317,4.67842939 C122.262317,3.98626435 122.070635,3.51640049 121.359397,3.51640049 C120.335416,3.51640049 119.735152,4.4965466 119.735152,5.49184962 L119.735152,6.98733028 L120.547275,6.98733028 L120.547275,8.04831319 L117.495509,8.04831319 L117.495509,6.99238258 L117.495509,6.99238258 Z" id="Path"></path>
            </g>
            <g id="Group" transform="translate(36.690379, 74.307214)">
                <polygon id="Path" points="0 6.95701649 0.948317333 6.95701649 0.948317333 1.23781339 0 1.23781339 0 0.136412088 3.36450884 0.136412088 3.36450884 1.23781339 2.40610302 1.23781339 2.40610302 6.95701649 3.36450884 6.95701649 3.36450884 8.04831319 0 8.04831319"></polygon>
                <path d="M4.38848979,6.99238258 L5.21070109,6.99238258 L5.21070109,3.66796948 C5.21070109,3.51134819 5.11990475,3.4204068 4.96857752,3.4204068 L4.33300313,3.4204068 L4.33300313,2.35942389 L5.82609851,2.35942389 C6.32547838,2.35942389 6.56255771,2.59182967 6.56255771,2.99601364 L6.56255771,3.25368091 C6.56255771,3.3749361 6.54238075,3.50124359 6.54238075,3.50124359 L6.56255771,3.50124359 C6.62813285,3.32441311 7.22839754,2.2280641 8.65591779,2.2280641 C9.8715799,2.2280641 10.5575967,2.88486305 10.5575967,4.39044831 L10.5575967,6.98733028 L11.379808,6.98733028 L11.379808,8.04831319 L9.15529766,8.04831319 L9.15529766,4.67842939 C9.15529766,3.98626435 8.96361649,3.51640049 8.25237849,3.51640049 C7.22839754,3.51640049 6.62813285,4.4965466 6.62813285,5.49184962 L6.62813285,6.98733028 L7.44025567,6.98733028 L7.44025567,8.04831319 L4.38848979,8.04831319 L4.38848979,6.99238258 L4.38848979,6.99238258 Z" id="Path"></path>
                <path d="M12.6509568,3.4204068 L11.7833473,3.4204068 L11.7833473,2.35942389 L12.6963549,2.35942389 L12.6963549,0.808367929 L14.0633443,0.808367929 L14.0633443,2.35942389 L15.35467,2.35942389 L15.35467,3.4204068 L14.0633443,3.4204068 L14.0633443,5.81519679 C14.0633443,6.7852383 14.7998035,6.91659809 15.1982985,6.91659809 C15.35467,6.91659809 15.4555548,6.90649349 15.4555548,6.90649349 L15.4555548,8.06347009 C15.4555548,8.06347009 15.2790064,8.09883619 15.0217501,8.09883619 C14.2197158,8.09883619 12.6509568,7.86643041 12.6509568,5.95666117 L12.6509568,3.4204068 L12.6509568,3.4204068 Z" id="Path"></path>
                <path d="M19.0722757,2.2280641 C20.7066099,2.2280641 21.5994405,3.4204068 21.5994405,4.92599207 C21.5994405,5.09271795 21.5641308,5.40596052 21.5641308,5.40596052 L17.634667,5.40596052 C17.7254633,6.45178653 18.4820995,6.98733028 19.3396205,6.98733028 C20.2627166,6.98733028 20.9890874,6.38610664 20.9890874,6.38610664 L21.5338654,7.39151425 C21.5338654,7.39151425 20.6662559,8.18472528 19.2387357,8.18472528 C17.3572337,8.18472528 16.1869698,6.8256567 16.1869698,5.20892084 C16.1869698,3.4557729 17.3673222,2.2280641 19.0722757,2.2280641 Z M20.1416548,4.5723311 C20.1214779,3.78922467 19.642275,3.32441311 19.036966,3.32441311 C18.3156396,3.32441311 17.801127,3.82459076 17.6699767,4.5723311 L20.1416548,4.5723311 Z" id="Shape"></path>
                <path d="M22.5225367,6.99238258 L23.344748,6.99238258 L23.344748,3.66796948 C23.344748,3.51134819 23.2539516,3.4204068 23.0975802,3.4204068 L22.4620058,3.4204068 L22.4620058,2.35942389 L23.9450127,2.35942389 C24.4443925,2.35942389 24.7016488,2.57162047 24.7016488,3.05158893 L24.7016488,3.3850407 C24.7016488,3.59723728 24.6814719,3.74375397 24.6814719,3.74375397 L24.7016488,3.74375397 C24.9589051,2.93033374 25.6348334,2.2836394 26.5074872,2.2836394 C26.6436817,2.2836394 26.7647435,2.3038486 26.7647435,2.3038486 L26.7647435,3.69828327 C26.7647435,3.69828327 26.6184605,3.67807408 26.4217351,3.67807408 C25.2766923,3.67807408 24.7621797,4.68348169 24.7621797,5.75456919 L24.7621797,6.99238258 L25.5743025,6.99238258 L25.5743025,8.05336549 L22.5225367,8.05336549 L22.5225367,6.99238258 Z" id="Path"></path>
                <path d="M27.4810257,6.99238258 L28.303237,6.99238258 L28.303237,3.66796948 C28.303237,3.51134819 28.2124407,3.4204068 28.0611134,3.4204068 L27.425539,3.4204068 L27.425539,2.35942389 L28.9186344,2.35942389 C29.4180143,2.35942389 29.6550936,2.59182967 29.6550936,2.99601364 L29.6550936,3.25368091 C29.6550936,3.3749361 29.6349167,3.50124359 29.6349167,3.50124359 L29.6550936,3.50124359 C29.7206688,3.32441311 30.3209335,2.2280641 31.7484537,2.2280641 C32.9641158,2.2280641 33.6501326,2.88486305 33.6501326,4.39044831 L33.6501326,6.98733028 L34.4723439,6.98733028 L34.4723439,8.04831319 L32.2478336,8.04831319 L32.2478336,4.67842939 C32.2478336,3.98626435 32.0561524,3.51640049 31.3449144,3.51640049 C30.3209335,3.51640049 29.7206688,4.4965466 29.7206688,5.49184962 L29.7206688,6.98733028 L30.5327916,6.98733028 L30.5327916,8.04831319 L27.4810257,8.04831319 L27.4810257,6.99238258 L27.4810257,6.99238258 Z" id="Path"></path>
                <path d="M38.2353478,4.536965 L38.5934889,4.536965 L38.5934889,4.34497762 C38.5934889,3.62249878 38.1395072,3.3648315 37.549331,3.3648315 C36.7018985,3.3648315 35.9452623,3.91047986 35.9452623,3.91047986 L35.4206612,2.93033374 C35.4206612,2.93033374 36.2983592,2.2280641 37.6703928,2.2280641 C39.1937536,2.2280641 40.0109207,3.02127513 40.0109207,4.47128511 L40.0109207,6.74481991 C40.0109207,6.91154579 40.101717,6.99238258 40.2580885,6.99238258 L40.7726011,6.99238258 L40.7726011,8.05336549 L39.4358772,8.05336549 C38.9112761,8.05336549 38.7145507,7.77548901 38.7145507,7.45214184 L38.7145507,7.38646195 C38.7145507,7.20963146 38.7498604,7.09848087 38.7498604,7.09848087 L38.7296834,7.09848087 C38.7296834,7.09848087 38.2504805,8.18977758 36.9389778,8.18977758 C35.9704835,8.18977758 35.0574759,7.61886773 35.0574759,6.46189113 C35.0372989,4.71379548 37.3223401,4.536965 38.2353478,4.536965 Z M37.2870305,7.12374237 C38.0537551,7.12374237 38.5985332,6.30021754 38.5985332,5.58279101 L38.5985332,5.39080362 L38.3664981,5.39080362 C37.8116315,5.39080362 36.4648192,5.48174502 36.4648192,6.34063594 C36.4648192,6.7700814 36.7624294,7.12374237 37.2870305,7.12374237 Z" id="Shape"></path>
                <path d="M42.0286171,3.4204068 L41.1610077,3.4204068 L41.1610077,2.35942389 L42.0740153,2.35942389 L42.0740153,0.808367929 L43.4410046,0.808367929 L43.4410046,2.35942389 L44.7323304,2.35942389 L44.7323304,3.4204068 L43.4410046,3.4204068 L43.4410046,5.81519679 C43.4410046,6.7852383 44.1774638,6.91659809 44.5759589,6.91659809 C44.7323304,6.91659809 44.8332152,6.90649349 44.8332152,6.90649349 L44.8332152,8.06347009 C44.8332152,8.06347009 44.6566668,8.09883619 44.3994105,8.09883619 C43.5973761,8.09883619 42.0286171,7.86643041 42.0286171,5.95666117 L42.0286171,3.4204068 L42.0286171,3.4204068 Z" id="Path"></path>
                <path d="M45.6957804,6.99238258 L46.5179917,6.99238258 L46.5179917,3.4254591 L45.6402938,3.4254591 L45.6402938,2.36447619 L47.9354235,2.36447619 L47.9354235,6.99238258 L48.7475463,6.99238258 L48.7475463,8.05336549 L45.6957804,8.05336549 L45.6957804,6.99238258 Z M46.5079033,0.131359788 L47.9354235,0.131359788 L47.9354235,1.38938238 L46.5079033,1.38938238 L46.5079033,0.131359788 Z" id="Shape"></path>
                <path d="M52.5761253,2.2280641 C54.3113443,2.2280641 55.7035548,3.46587749 55.7035548,5.20386854 C55.7035548,6.95701649 54.3113443,8.17967298 52.5862138,8.17967298 C50.8509949,8.17967298 49.4587843,6.95196419 49.4587843,5.20386854 C49.4587843,3.46587749 50.8509949,2.2280641 52.5761253,2.2280641 Z M52.5862138,6.98227798 C53.4992215,6.98227798 54.2659461,6.26990375 54.2659461,5.20892084 C54.2659461,4.15804253 53.4992215,3.4355637 52.5862138,3.4355637 C51.6631177,3.4355637 50.8913488,4.15804253 50.8913488,5.20892084 C50.8913488,6.26485145 51.6631177,6.98227798 52.5862138,6.98227798 Z" id="Shape"></path>
                <path d="M56.5913413,6.99238258 L57.4135526,6.99238258 L57.4135526,3.66796948 C57.4135526,3.51134819 57.3227562,3.4204068 57.171429,3.4204068 L56.5358546,3.4204068 L56.5358546,2.35942389 L58.02895,2.35942389 C58.5283299,2.35942389 58.7654092,2.59182967 58.7654092,2.99601364 L58.7654092,3.25368091 C58.7654092,3.3749361 58.7452322,3.50124359 58.7452322,3.50124359 L58.7654092,3.50124359 C58.8309843,3.32441311 59.431249,2.2280641 60.8587693,2.2280641 C62.0744314,2.2280641 62.7604482,2.88486305 62.7604482,4.39044831 L62.7604482,6.98733028 L63.5826595,6.98733028 L63.5826595,8.04831319 L61.3581491,8.04831319 L61.3581491,4.67842939 C61.3581491,3.98626435 61.166468,3.51640049 60.45523,3.51640049 C59.431249,3.51640049 58.8309843,4.4965466 58.8309843,5.49184962 L58.8309843,6.98733028 L59.6431072,6.98733028 L59.6431072,8.04831319 L56.5913413,8.04831319 L56.5913413,6.99238258 L56.5913413,6.99238258 Z" id="Path"></path>
                <path d="M67.3507076,4.536965 L67.7088487,4.536965 L67.7088487,4.34497762 C67.7088487,3.62249878 67.254867,3.3648315 66.6646908,3.3648315 C65.8172583,3.3648315 65.0606221,3.91047986 65.0606221,3.91047986 L64.5360211,2.93033374 C64.5360211,2.93033374 65.413719,2.2280641 66.7857526,2.2280641 C68.3091134,2.2280641 69.1262805,3.02127513 69.1262805,4.47128511 L69.1262805,6.74481991 C69.1262805,6.91154579 69.2170768,6.99238258 69.3734483,6.99238258 L69.8879609,6.99238258 L69.8879609,8.05336549 L68.551237,8.05336549 C68.0266359,8.05336549 67.8299105,7.77548901 67.8299105,7.45214184 L67.8299105,7.38646195 C67.8299105,7.20963146 67.8652202,7.09848087 67.8652202,7.09848087 L67.8450432,7.09848087 C67.8450432,7.09848087 67.3658403,8.18977758 66.0543376,8.18977758 C65.0858433,8.18977758 64.1728357,7.61886773 64.1728357,6.46189113 C64.1526587,4.71379548 66.4377,4.536965 67.3507076,4.536965 Z M66.4023903,7.12374237 C67.1691149,7.12374237 67.713893,6.30021754 67.713893,5.58279101 L67.713893,5.39080362 L67.4818579,5.39080362 C66.9269914,5.39080362 65.580179,5.48174502 65.580179,6.34063594 C65.580179,6.7700814 65.8777892,7.12374237 66.4023903,7.12374237 Z" id="Shape"></path>
                <path d="M70.9220303,1.19234269 L70.0443324,1.19234269 L70.0443324,0.131359788 L72.3293736,0.131359788 L72.3293736,6.15370086 C72.3293736,6.66903541 72.4403469,6.93175499 72.9094613,6.93175499 C73.0658328,6.93175499 73.1768061,6.92165039 73.1768061,6.92165039 L73.1768061,8.05841779 C73.1768061,8.05841779 72.944771,8.09378389 72.6622935,8.09378389 C71.7593744,8.09378389 70.9270746,7.79064591 70.9270746,6.24464225 L70.9270746,1.19234269 L70.9220303,1.19234269 Z" id="Path"></path>
                <path d="M78.1605164,5.49690192 L78.1605164,6.08802096 C78.1605164,6.60335552 78.8061792,6.90144119 79.5527269,6.90144119 C80.3547613,6.90144119 80.9247605,6.55788482 80.9247605,5.92129508 C80.9247605,5.11797945 80.0218413,4.86031217 79.1088337,4.5066512 C78.0495431,4.10751954 77.0154736,3.62755108 77.0154736,2.20785491 C77.0154736,0.611328246 78.3067994,0 79.6637002,0 C80.9096278,0 82.1706881,0.479968458 82.1706881,1.39443468 L82.1706881,2.43015609 L80.8440526,2.43015609 L80.8440526,1.89461233 C80.8440526,1.49548067 80.2538764,1.28328409 79.6637002,1.28328409 C79.0180374,1.28328409 78.4833478,1.55105596 78.4833478,2.15227961 C78.4833478,2.87475845 79.219807,3.13242572 80.0420183,3.4456683 C81.2223707,3.87006146 82.4027232,4.33992532 82.4027232,5.82024909 C82.4027232,7.43698494 81.0458223,8.18472528 79.5527269,8.18472528 C78.2412242,8.18472528 76.8338809,7.59360623 76.8338809,6.40126354 L76.8338809,5.49690192 L78.1605164,5.49690192 L78.1605164,5.49690192 Z" id="Path"></path>
                <path d="M84.0067918,3.4204068 L83.1290939,3.4204068 L83.1290939,2.35942389 L85.4242236,2.35942389 L85.4242236,5.76972609 C85.4242236,6.45178653 85.600772,6.91659809 86.3170543,6.91659809 C87.2956371,6.91659809 87.8858133,5.91119048 87.8858133,4.88557367 L87.8858133,3.4153545 L87.0182038,3.4153545 L87.0182038,2.35437159 L89.2982008,2.35437159 L89.2982008,6.74987221 C89.2982008,6.90649349 89.3889971,6.99238258 89.5453686,6.99238258 L90.0901466,6.99238258 L90.0901466,8.04326089 L88.6878476,8.04326089 C88.1884677,8.04326089 87.9513884,7.81085511 87.9513884,7.40667115 L87.9513884,7.19447457 C87.9513884,7.04795788 87.9614769,6.92670269 87.9614769,6.92670269 L87.9412999,6.92670269 C87.8757248,7.11869007 87.2956371,8.17462068 85.8681168,8.17462068 C84.7331626,8.17462068 84.0067918,7.56329243 84.0067918,6.01223647 L84.0067918,3.4204068 L84.0067918,3.4204068 Z" id="Path"></path>
                <path d="M90.8064289,6.15370086 L92.0069583,6.15370086 L92.0069583,6.48715263 C92.0069583,6.87617969 92.5315594,7.07827168 93.1217356,7.07827168 C93.6917348,7.07827168 94.0902299,6.87617969 94.0902299,6.49725723 C94.0902299,6.01728877 93.5555403,5.89603358 92.7989041,5.6181571 C91.9615601,5.33017603 91.0081985,4.93609666 91.0081985,3.85490456 C91.0081985,2.65245727 92.2087279,2.2280641 93.2478416,2.2280641 C94.0700529,2.2280641 95.2958035,2.55141128 95.2958035,3.4103022 L95.2958035,4.13278104 L94.0801414,4.13278104 L94.0801414,3.80943386 C94.0801414,3.52145279 93.7472215,3.33957001 93.2427974,3.33957001 C92.7989041,3.33957001 92.4205861,3.49619129 92.4205861,3.85490456 C92.4205861,4.32476842 92.9754526,4.5117035 93.611027,4.70369089 C94.4786364,4.98156736 95.5026174,5.34028063 95.5026174,6.45683883 C95.5026174,7.60371083 94.4130613,8.18472528 93.1066028,8.18472528 C92.0725334,8.18472528 90.8013846,7.74012292 90.8013846,6.8104998 L90.8013846,6.15370086 L90.8064289,6.15370086 Z" id="Path"></path>
                <path d="M96.9957128,3.4204068 L96.1281033,3.4204068 L96.1281033,2.35942389 L97.0411109,2.35942389 L97.0411109,0.808367929 L98.4081003,0.808367929 L98.4081003,2.35942389 L99.699426,2.35942389 L99.699426,3.4204068 L98.4081003,3.4204068 L98.4081003,5.81519679 C98.4081003,6.7852383 99.1445595,6.91659809 99.5430545,6.91659809 C99.699426,6.91659809 99.8003108,6.90649349 99.8003108,6.90649349 L99.8003108,8.06347009 C99.8003108,8.06347009 99.6237624,8.09883619 99.3665061,8.09883619 C98.5644718,8.09883619 96.9957128,7.86643041 96.9957128,5.95666117 L96.9957128,3.4204068 L96.9957128,3.4204068 Z" id="Path"></path>
                <path d="M103.654111,4.536965 L104.012252,4.536965 L104.012252,4.34497762 C104.012252,3.62249878 103.553226,3.3648315 102.96305,3.3648315 C102.115618,3.3648315 101.358981,3.91047986 101.358981,3.91047986 L100.83438,2.93033374 C100.83438,2.93033374 101.712078,2.2280641 103.084112,2.2280641 C104.607473,2.2280641 105.42464,3.02127513 105.42464,4.47128511 L105.42464,6.74481991 C105.42464,6.91154579 105.515436,6.99238258 105.671808,6.99238258 L106.18632,6.99238258 L106.18632,8.05336549 L104.849596,8.05336549 C104.324995,8.05336549 104.12827,7.77548901 104.12827,7.45214184 L104.12827,7.38646195 C104.12827,7.20963146 104.163579,7.09848087 104.163579,7.09848087 L104.143402,7.09848087 C104.143402,7.09848087 103.6642,8.18977758 102.352697,8.18977758 C101.384203,8.18977758 100.471162,7.61886773 100.471162,6.46189113 C100.461106,4.71379548 102.741103,4.536965 103.654111,4.536965 Z M102.710838,7.12374237 C103.477563,7.12374237 104.022341,6.30021754 104.022341,5.58279101 L104.022341,5.39080362 L103.790306,5.39080362 C103.235439,5.39080362 101.888627,5.48174502 101.888627,6.34063594 C101.883582,6.7700814 102.186237,7.12374237 102.710838,7.12374237 Z" id="Shape"></path>
                <path d="M106.953045,6.99238258 L107.775256,6.99238258 L107.775256,3.4254591 L106.897558,3.4254591 L106.897558,2.36447619 L109.192688,2.36447619 L109.192688,6.99238258 L110.004811,6.99238258 L110.004811,8.05336549 L106.953045,8.05336549 L106.953045,6.99238258 Z M107.765168,0.131359788 L109.192688,0.131359788 L109.192688,1.38938238 L107.765168,1.38938238 L107.765168,0.131359788 Z" id="Shape"></path>
                <path d="M110.847199,6.99238258 L111.66941,6.99238258 L111.66941,3.66796948 C111.66941,3.51134819 111.578614,3.4204068 111.427287,3.4204068 L110.791712,3.4204068 L110.791712,2.35942389 L112.284808,2.35942389 C112.784188,2.35942389 113.021267,2.59182967 113.021267,2.99601364 L113.021267,3.25368091 C113.021267,3.3749361 113.00109,3.50124359 113.00109,3.50124359 L113.021267,3.50124359 C113.086842,3.32441311 113.687107,2.2280641 115.114627,2.2280641 C116.330289,2.2280641 117.016306,2.88486305 117.016306,4.39044831 L117.016306,6.98733028 L117.838517,6.98733028 L117.838517,8.04831319 L115.614007,8.04831319 L115.614007,4.67842939 C115.614007,3.98626435 115.422326,3.51640049 114.711088,3.51640049 C113.687107,3.51640049 113.086842,4.4965466 113.086842,5.49184962 L113.086842,6.98733028 L113.898965,6.98733028 L113.898965,8.04831319 L110.847199,8.04831319 L110.847199,6.99238258 L110.847199,6.99238258 Z" id="Path"></path>
                <path d="M121.601521,4.536965 L121.959662,4.536965 L121.959662,4.34497762 C121.959662,3.62249878 121.50568,3.3648315 120.915504,3.3648315 C120.068072,3.3648315 119.311436,3.91047986 119.311436,3.91047986 L118.786834,2.93033374 C118.786834,2.93033374 119.664532,2.2280641 121.036566,2.2280641 C122.559927,2.2280641 123.377094,3.02127513 123.377094,4.47128511 L123.377094,6.74481991 C123.377094,6.91154579 123.46789,6.99238258 123.624262,6.99238258 L124.138774,6.99238258 L124.138774,8.05336549 L122.80205,8.05336549 C122.277449,8.05336549 122.080724,7.77548901 122.080724,7.45214184 L122.080724,7.38646195 C122.080724,7.20963146 122.116034,7.09848087 122.116034,7.09848087 L122.095857,7.09848087 C122.095857,7.09848087 121.616654,8.18977758 120.305151,8.18977758 C119.336657,8.18977758 118.423649,7.61886773 118.423649,6.46189113 C118.408516,4.71379548 120.688513,4.536965 121.601521,4.536965 Z M120.658248,7.12374237 C121.424973,7.12374237 121.969751,6.30021754 121.969751,5.58279101 L121.969751,5.39080362 L121.737716,5.39080362 C121.182849,5.39080362 119.836037,5.48174502 119.836037,6.34063594 C119.830992,6.7700814 120.133647,7.12374237 120.658248,7.12374237 Z" id="Shape"></path>
                <path d="M125.26364,1.19234269 L124.396031,1.19234269 L124.396031,0.131359788 L126.676028,0.131359788 L126.676028,2.59688197 C126.676028,2.87475845 126.655851,3.07685043 126.655851,3.07685043 L126.676028,3.07685043 C126.676028,3.07685043 127.19054,2.2280641 128.380981,2.2280641 C129.919475,2.2280641 130.908146,3.4456683 130.908146,5.20386854 C130.908146,7.01259178 129.793369,8.17967298 128.290185,8.17967298 C127.054346,8.17967298 126.59532,7.27531136 126.59532,7.27531136 L126.575143,7.27531136 C126.575143,7.27531136 126.59532,7.47740334 126.59532,7.69970452 L126.59532,8.04326089 L125.258596,8.04326089 L125.258596,1.19234269 L125.26364,1.19234269 Z M128.048061,6.99238258 C128.824874,6.99238258 129.48567,6.35579284 129.48567,5.22913004 C129.48567,4.14793793 128.905582,3.4456683 128.073282,3.4456683 C127.336823,3.4456683 126.645762,3.98121205 126.645762,5.23923464 C126.645762,6.12338706 127.104788,6.99238258 128.048061,6.99238258 Z" id="Shape"></path>
                <path d="M131.821154,6.99238258 L132.643365,6.99238258 L132.643365,3.4254591 L131.765667,3.4254591 L131.765667,2.36447619 L134.060797,2.36447619 L134.060797,6.99238258 L134.872919,6.99238258 L134.872919,8.05336549 L131.821154,8.05336549 L131.821154,6.99238258 Z M132.638321,0.131359788 L134.065841,0.131359788 L134.065841,1.38938238 L132.638321,1.38938238 L132.638321,0.131359788 Z" id="Shape"></path>
                <path d="M135.977608,1.19234269 L135.09991,1.19234269 L135.09991,0.131359788 L137.384952,0.131359788 L137.384952,6.15370086 C137.384952,6.66903541 137.495925,6.93175499 137.965039,6.93175499 C138.121411,6.93175499 138.232384,6.92165039 138.232384,6.92165039 L138.232384,8.05841779 C138.232384,8.05841779 138.000349,8.09378389 137.717871,8.09378389 C136.814952,8.09378389 135.982652,7.79064591 135.982652,6.24464225 L135.982652,1.19234269 L135.977608,1.19234269 Z" id="Path"></path>
                <path d="M139.079817,6.99238258 L139.902028,6.99238258 L139.902028,3.4254591 L139.02433,3.4254591 L139.02433,2.36447619 L141.31946,2.36447619 L141.31946,6.99238258 L142.131582,6.99238258 L142.131582,8.05336549 L139.079817,8.05336549 L139.079817,6.99238258 Z M139.896984,0.131359788 L141.324504,0.131359788 L141.324504,1.38938238 L139.896984,1.38938238 L139.896984,0.131359788 Z" id="Shape"></path>
                <path d="M143.488483,3.4204068 L142.620874,3.4204068 L142.620874,2.35942389 L143.533881,2.35942389 L143.533881,0.808367929 L144.900871,0.808367929 L144.900871,2.35942389 L146.192197,2.35942389 L146.192197,3.4204068 L144.900871,3.4204068 L144.900871,5.81519679 C144.900871,6.7852383 145.63733,6.91659809 146.035825,6.91659809 C146.192197,6.91659809 146.293081,6.90649349 146.293081,6.90649349 L146.293081,8.06347009 C146.293081,8.06347009 146.116533,8.09883619 145.859277,8.09883619 C145.057242,8.09883619 143.488483,7.86643041 143.488483,5.95666117 L143.488483,3.4204068 L143.488483,3.4204068 Z" id="Path"></path>
                <path d="M148.225026,9.23055129 C148.679007,9.23055129 149.047237,8.98298861 149.22883,8.57375234 L149.385201,8.21503908 L147.438124,3.4204068 L146.757152,3.4204068 L146.757152,2.35942389 L149.551661,2.35942389 L149.551661,3.4204068 L148.885821,3.4204068 L149.919891,6.29516525 C150.020776,6.57304172 150.040953,6.88628429 150.040953,6.88628429 L150.076262,6.88628429 C150.076262,6.88628429 150.12166,6.57304172 150.232634,6.29516525 L151.256615,3.4204068 L150.600863,3.4204068 L150.600863,2.35942389 L153.2844,2.35942389 L153.2844,3.4204068 L152.638737,3.4204068 L150.545377,8.78594893 C150.111572,9.91261173 149.264139,10.3925802 148.295645,10.3925802 C147.473434,10.3925802 146.913523,10.0035531 146.913523,10.0035531 L147.367505,8.96783171 C147.367505,8.96277941 147.700425,9.23055129 148.225026,9.23055129 Z" id="Path"></path>
            </g>
            <path d="M38.3297576,63.8742155 C23.1566803,63.8742155 9.66837947,52.9561962 6.94448926,37.4810026 C3.89272338,20.1415106 15.494478,3.54470653 32.8063136,0.488065296 C50.1181491,-2.56857593 66.6884812,9.05171304 69.7402471,26.3912051 C72.792013,43.7306972 61.1902584,60.3275012 43.8784228,63.3841425 C42.0170979,63.7175942 40.1608171,63.8742155 38.3297576,63.8742155 Z M38.360023,3.28703925 C36.7156004,3.28703925 35.0510009,3.42850364 33.381357,3.72658931 C17.8501386,6.46998797 7.44386913,21.3540625 10.1828921,36.9100928 C12.921915,52.4661231 27.7872936,62.8890171 43.3134678,60.1456184 L43.3134678,60.1456184 C58.8446863,57.4022198 69.2509557,42.5181453 66.5119328,26.962115 C64.0705201,13.0834481 51.9693856,3.28703925 38.360023,3.28703925 Z" id="Shape"></path>
            <path d="M14.1476656,64.9503553 L0.497949092,88.6355356 C-0.526031858,90.4139451 0.0792770781,92.6874799 1.85484996,93.718149 L3.20670658,94.5012554 C4.98227946,95.5268722 7.25218797,94.9205963 8.28121316,93.1421868 L20.0746489,72.6803736 C21.0986299,70.9019642 20.4933209,68.6284294 18.7177481,67.5977603 L14.1476656,64.9503553" id="Path"></path>
            <path d="M23.4542905,66.2791101 L24.5690678,64.3491317 C24.9726071,63.646862 24.7355277,62.7475527 24.0343782,62.3433687 L18.7883674,59.3069367 C18.0872179,58.9027527 17.189343,59.1402108 16.7858037,59.8424805 L16.4074856,60.5043317 C16.0039463,61.2066013 16.2410257,62.1059107 16.9421752,62.5100946 L23.4542905,66.2791101" id="Path"></path>
            <path d="M32.0900313,53.2492295 C27.126498,51.789115 22.8742028,48.6364801 20.014118,44.453176 L26.8238436,44.453176 C28.1252578,48.1110409 29.9563173,51.1727344 32.0900313,53.2492295 M37.3612633,54.0929636 C33.820206,53.4715307 30.8340153,49.5610509 28.9323364,44.453176 L37.3612633,44.453176 L37.3612633,54.0929636 M39.3285173,54.082859 L39.3285173,44.453176 L47.8129309,44.453176 C45.7447921,49.8540842 42.4963008,53.4563738 39.3285173,54.082859 M44.6098378,53.2492295 C46.748596,51.1727344 48.5796556,48.1110409 49.8760255,44.4582283 L56.6807068,44.4582283 C53.8155779,48.6314278 49.5683268,51.7840627 44.6098378,53.2492295 M18.8085444,42.4827792 C17.2498739,39.6029684 16.3066008,36.3442352 16.1552736,32.88341 L24.7607489,32.88341 C24.8364126,36.2684507 25.3509252,39.527184 26.1983577,42.4827792 L18.8085444,42.4827792 M28.2715408,42.4827792 C27.3585331,39.4513995 26.8087108,36.1269864 26.7229587,32.88341 L37.3612633,32.88341 L37.3612633,42.4827792 L28.2715408,42.4827792 M39.3285173,42.4827792 L39.3285173,32.88341 L49.9769104,32.88341 C49.8962025,36.3947582 49.3514245,39.6383345 48.483815,42.4827792 L39.3285173,42.4827792 M50.5065557,42.4827792 C51.3539882,39.527184 51.8685008,36.2684507 51.9441644,32.88341 L60.5395513,32.88341 C60.3882241,36.3442352 59.444951,39.6029684 57.8862805,42.4827792 L50.5065557,42.4827792 M16.1552736,30.9180655 C16.3066008,27.4572403 17.2498739,24.1985071 18.8085444,21.3186964 L26.2387116,21.3186964 C25.3811906,24.2692393 24.8565895,27.5279725 24.7607489,30.9180655 L16.1552736,30.9180655 M26.728003,30.9180655 C26.8238436,27.4067173 27.3837543,24.163141 28.2614523,21.3186964 L37.3663075,21.3186964 L37.3663075,30.9180655 L26.728003,30.9180655 M39.3285173,30.9180655 L39.3285173,21.3186964 L48.4434611,21.3186964 C49.321159,24.163141 49.8810698,27.4067173 49.9769104,30.9180655 L39.3285173,30.9180655 M51.9441644,30.9180655 C51.8483238,27.5279725 51.3237228,24.2692393 50.4662018,21.3186964 L57.8862805,21.3186964 C59.444951,24.1985071 60.3882241,27.4572403 60.5395513,30.9180655 L51.9441644,30.9180655 M49.8255831,19.3482995 C48.503992,15.6601209 46.642667,12.5832704 44.4786875,10.5168799 C49.4977075,11.9618376 53.7903567,15.1346817 56.6756626,19.3482995 L49.8255831,19.3482995 M20.014118,19.3482995 C22.899424,15.1346817 27.1971174,11.9618376 32.2211816,10.5168799 C30.0572021,12.5782181 28.2009214,15.6601209 26.8793302,19.3482995 L20.014118,19.3482995 M39.3285173,19.3482995 L39.3285173,9.78429648 C42.4710796,10.4107816 45.6943496,13.9827574 47.7624885,19.3482995 L39.3285173,19.3482995 M28.9373806,19.3482995 C31.0004752,13.9827574 34.2237453,10.4107816 37.3663075,9.78429648 L37.3663075,19.3482995 L28.9373806,19.3482995" id="Shape"></path>
        </g>
    </g>
</svg>